<svg width="108" height="108" viewBox="0 0 108 108" fill="none" xmlns="http://www.w3.org/2000/svg">
<path d="M54 108C83.8234 108 108 83.8234 108 54C108 24.1766 83.8234 0 54 0C24.1766 0 0 24.1766 0 54C0 83.8234 24.1766 108 54 108Z" fill="url(#paint0_linear_7_286)"/>
<path d="M18.9364 56.3003C25.2792 52.8341 32.3595 49.9411 38.9749 47.0333C50.356 42.2707 61.7823 37.5906 73.324 33.2335C75.5695 32.4911 79.6044 31.7652 80 35.0667C79.7833 39.74 78.8921 44.3861 78.2809 49.0321C76.7294 59.2491 74.9361 69.4311 73.1874 79.6145C72.5848 83.0066 68.3019 84.7625 65.5614 82.5917C58.9753 78.1783 52.3386 73.8075 45.8367 69.2916C43.7068 67.1445 45.6819 64.061 47.584 62.5278C53.0085 57.2241 58.7612 52.7181 63.9022 47.1403C65.289 43.8181 61.1915 46.618 59.84 47.4759C52.4138 52.5531 45.1695 57.9401 37.34 62.4022C33.3407 64.5864 28.6795 62.7199 24.682 61.5012C21.0978 60.0288 15.8456 58.5455 18.9361 56.3007L18.9364 56.3003Z" fill="white"/>
<defs>
<linearGradient id="paint0_linear_7_286" x1="38.8646" y1="-49.9961" x2="-34.9428" y2="69.3363" gradientUnits="userSpaceOnUse">
<stop stop-color="#34B0DF"/>
<stop offset="1" stop-color="#1E88D3"/>
</linearGradient>
</defs>
</svg>


