<svg width="216" height="216" viewBox="0 0 216 216" fill="none" xmlns="http://www.w3.org/2000/svg">
<path d="M108 216C48.3532 216 0 167.647 0 108C0 48.3532 48.3532 0 108 0C167.647 0 216 48.3532 216 108C216 167.647 167.647 216 108 216Z" fill="url(#paint0_linear_0_3510)"/>
<path d="M178.127 112.601C165.442 105.668 151.281 99.8822 138.05 94.0667C115.288 84.5414 92.4353 75.1812 69.3521 66.4669C64.8609 64.9822 56.7913 63.5304 56 70.1333C56.4335 79.4801 58.2158 88.7721 59.4383 98.0641C62.5412 118.498 66.1278 138.862 69.6252 159.229C70.8303 166.013 79.3962 169.525 84.8772 165.183C98.0493 156.357 111.323 147.615 124.327 138.583C128.586 134.289 124.636 128.122 120.832 125.056C109.983 114.448 98.4775 105.436 88.1956 94.2807C85.4221 87.6361 93.617 93.2359 96.32 94.9519C111.172 105.106 125.661 115.88 141.32 124.804C149.319 129.173 158.641 125.44 166.636 123.002C173.804 120.058 184.309 117.091 178.128 112.601L178.127 112.601Z" fill="white"/>
<defs>
<linearGradient id="paint0_linear_0_3510" x1="138.271" y1="-99.9923" x2="285.886" y2="138.673" gradientUnits="userSpaceOnUse">
<stop stop-color="#34B0DF"/>
<stop offset="1" stop-color="#1E88D3"/>
</linearGradient>
</defs>
</svg>
